<mxfile host="Electron" modified="2023-06-21T07:05:37.798Z" agent="Mozilla/5.0 (Windows NT 10.0; Win64; x64) AppleWebKit/537.36 (KHTML, like Gecko) draw.io/21.5.0 Chrome/112.0.5615.204 Electron/24.5.1 Safari/537.36" etag="VQg_RJ0Sm34nHyXoJnVt" version="21.5.0" type="device">
  <diagram name="Page-1" id="0N3V7sz6y-19wvx6GIDJ">
    <mxGraphModel dx="1886" dy="606" grid="1" gridSize="10" guides="1" tooltips="1" connect="1" arrows="1" fold="1" page="1" pageScale="1" pageWidth="850" pageHeight="1100" math="0" shadow="0">
      <root>
        <mxCell id="0" />
        <mxCell id="1" parent="0" />
        <mxCell id="HwCK8i7AnO1B--cMkoOj-27" value="" style="ellipse;html=1;shape=endState;labelBackgroundColor=none;" parent="1" vertex="1">
          <mxGeometry x="415" y="850" width="30" height="30" as="geometry" />
        </mxCell>
        <mxCell id="ZPRrXdz_Xp1DLQXuUSa4-16" value="sale" style="shape=umlActor;verticalLabelPosition=bottom;verticalAlign=top;html=1;outlineConnect=0;labelBackgroundColor=none;" parent="1" vertex="1">
          <mxGeometry x="-680" y="250" width="30" height="60" as="geometry" />
        </mxCell>
        <mxCell id="ZPRrXdz_Xp1DLQXuUSa4-18" value="" style="endArrow=none;html=1;rounded=0;entryX=0;entryY=0.5;entryDx=0;entryDy=0;labelBackgroundColor=none;fontColor=default;" parent="1" target="Xwj4L3ruU9xIGPS3UAKI-2" edge="1">
          <mxGeometry width="50" height="50" relative="1" as="geometry">
            <mxPoint x="-640" y="290" as="sourcePoint" />
            <mxPoint x="-520" y="290" as="targetPoint" />
          </mxGeometry>
        </mxCell>
        <mxCell id="ZPRrXdz_Xp1DLQXuUSa4-20" value="" style="endArrow=none;html=1;rounded=0;exitX=0;exitY=0;exitDx=0;exitDy=0;labelBackgroundColor=none;fontColor=default;" parent="1" source="Xwj4L3ruU9xIGPS3UAKI-3" edge="1">
          <mxGeometry width="50" height="50" relative="1" as="geometry">
            <mxPoint x="-482.42640687119274" y="451.7157287525381" as="sourcePoint" />
            <mxPoint x="-650" y="320" as="targetPoint" />
          </mxGeometry>
        </mxCell>
        <mxCell id="ZPRrXdz_Xp1DLQXuUSa4-23" value="&amp;lt;&amp;lt;include&amp;gt;&amp;gt;" style="endArrow=open;endSize=12;dashed=1;html=1;rounded=0;exitX=0.5;exitY=1;exitDx=0;exitDy=0;entryX=0.5;entryY=0;entryDx=0;entryDy=0;labelBackgroundColor=none;fontColor=default;" parent="1" source="Xwj4L3ruU9xIGPS3UAKI-1" edge="1" target="Xwj4L3ruU9xIGPS3UAKI-2">
          <mxGeometry x="0.0909" width="160" relative="1" as="geometry">
            <mxPoint x="-440" y="140" as="sourcePoint" />
            <mxPoint x="-440" y="250" as="targetPoint" />
            <mxPoint as="offset" />
          </mxGeometry>
        </mxCell>
        <mxCell id="ZPRrXdz_Xp1DLQXuUSa4-24" value="" style="endArrow=none;html=1;rounded=0;entryX=0;entryY=1;entryDx=0;entryDy=0;labelBackgroundColor=none;fontColor=default;" parent="1" edge="1">
          <mxGeometry width="50" height="50" relative="1" as="geometry">
            <mxPoint x="-640" y="260" as="sourcePoint" />
            <mxPoint x="-482.42640687119274" y="128.2842712474619" as="targetPoint" />
            <Array as="points">
              <mxPoint x="-570" y="200" />
            </Array>
          </mxGeometry>
        </mxCell>
        <mxCell id="ZPRrXdz_Xp1DLQXuUSa4-26" value="&amp;lt;&amp;lt;include&amp;gt;&amp;gt;" style="endArrow=open;endSize=12;dashed=1;html=1;rounded=0;exitX=0;exitY=0.5;exitDx=0;exitDy=0;entryX=1;entryY=0.5;entryDx=0;entryDy=0;labelBackgroundColor=none;fontColor=default;" parent="1" source="Xwj4L3ruU9xIGPS3UAKI-5" target="Xwj4L3ruU9xIGPS3UAKI-2" edge="1">
          <mxGeometry x="-0.0732" y="2" width="160" relative="1" as="geometry">
            <mxPoint x="-270" y="290" as="sourcePoint" />
            <mxPoint x="-380" y="290" as="targetPoint" />
            <mxPoint as="offset" />
          </mxGeometry>
        </mxCell>
        <mxCell id="ZPRrXdz_Xp1DLQXuUSa4-28" value="&amp;lt;&amp;lt;extend&amp;gt;&amp;gt;" style="endArrow=open;endSize=12;dashed=1;html=1;rounded=0;exitX=0.5;exitY=1;exitDx=0;exitDy=0;entryX=0.5;entryY=0;entryDx=0;entryDy=0;labelBackgroundColor=none;fontColor=default;" parent="1" target="Xwj4L3ruU9xIGPS3UAKI-5" edge="1">
          <mxGeometry x="-0.1111" width="160" relative="1" as="geometry">
            <mxPoint x="-190.5" y="135" as="sourcePoint" />
            <mxPoint x="-190.5" y="245" as="targetPoint" />
            <mxPoint as="offset" />
          </mxGeometry>
        </mxCell>
        <mxCell id="ZPRrXdz_Xp1DLQXuUSa4-29" value="guest" style="shape=umlActor;verticalLabelPosition=bottom;verticalAlign=top;html=1;labelBackgroundColor=none;" parent="1" vertex="1">
          <mxGeometry y="545" width="30" height="60" as="geometry" />
        </mxCell>
        <mxCell id="Xwj4L3ruU9xIGPS3UAKI-2" value="login" style="ellipse;whiteSpace=wrap;html=1;labelBackgroundColor=none;" parent="1" vertex="1">
          <mxGeometry x="-510" y="253" width="140" height="70" as="geometry" />
        </mxCell>
        <mxCell id="Xwj4L3ruU9xIGPS3UAKI-3" value="Create Invoice" style="ellipse;whiteSpace=wrap;html=1;labelBackgroundColor=none;" parent="1" vertex="1">
          <mxGeometry x="-510" y="400" width="140" height="70" as="geometry" />
        </mxCell>
        <mxCell id="Xwj4L3ruU9xIGPS3UAKI-4" value="cancel&amp;nbsp;order" style="ellipse;whiteSpace=wrap;html=1;labelBackgroundColor=none;" parent="1" vertex="1">
          <mxGeometry x="-260" y="100" width="140" height="70" as="geometry" />
        </mxCell>
        <mxCell id="Xwj4L3ruU9xIGPS3UAKI-5" value="Payment" style="ellipse;whiteSpace=wrap;html=1;labelBackgroundColor=none;" parent="1" vertex="1">
          <mxGeometry x="-260" y="255" width="140" height="70" as="geometry" />
        </mxCell>
        <mxCell id="aRFpY46DCi8v_-oRXxSK-1" value="&amp;lt;&amp;lt;include&amp;gt;&amp;gt;" style="endArrow=open;endSize=12;dashed=1;html=1;rounded=0;entryX=0.5;entryY=1;entryDx=0;entryDy=0;exitX=0.5;exitY=0;exitDx=0;exitDy=0;labelBackgroundColor=none;fontColor=default;" parent="1" source="Xwj4L3ruU9xIGPS3UAKI-3" target="Xwj4L3ruU9xIGPS3UAKI-2" edge="1">
          <mxGeometry x="0.0909" width="160" relative="1" as="geometry">
            <mxPoint x="-440" y="370" as="sourcePoint" />
            <mxPoint x="-330" y="390" as="targetPoint" />
            <mxPoint as="offset" />
          </mxGeometry>
        </mxCell>
        <mxCell id="iunbp9EFBULpjeH-nD7Y-1" value="export invoice" style="ellipse;whiteSpace=wrap;html=1;labelBackgroundColor=none;" parent="1" vertex="1">
          <mxGeometry x="-260" y="540" width="140" height="70" as="geometry" />
        </mxCell>
        <mxCell id="iunbp9EFBULpjeH-nD7Y-4" value="&amp;lt;&amp;lt;extend&amp;gt;&amp;gt;" style="endArrow=open;endSize=12;dashed=1;html=1;rounded=0;exitX=0.5;exitY=0;exitDx=0;exitDy=0;entryX=0.5;entryY=1;entryDx=0;entryDy=0;" parent="1" source="iunbp9EFBULpjeH-nD7Y-1" target="iunbp9EFBULpjeH-nD7Y-26" edge="1">
          <mxGeometry width="160" relative="1" as="geometry">
            <mxPoint x="-400" y="310" as="sourcePoint" />
            <mxPoint x="-190" y="460" as="targetPoint" />
          </mxGeometry>
        </mxCell>
        <mxCell id="iunbp9EFBULpjeH-nD7Y-5" value="tabacco&amp;nbsp;information" style="ellipse;whiteSpace=wrap;html=1;labelBackgroundColor=none;" parent="1" vertex="1">
          <mxGeometry x="-730" y="400" width="140" height="70" as="geometry" />
        </mxCell>
        <mxCell id="iunbp9EFBULpjeH-nD7Y-6" value="customer&amp;nbsp;information" style="ellipse;whiteSpace=wrap;html=1;labelBackgroundColor=none;" parent="1" vertex="1">
          <mxGeometry x="-510" y="540" width="140" height="70" as="geometry" />
        </mxCell>
        <mxCell id="iunbp9EFBULpjeH-nD7Y-15" value="" style="endArrow=none;html=1;rounded=0;entryX=1;entryY=0.5;entryDx=0;entryDy=0;exitX=0.5;exitY=0.5;exitDx=0;exitDy=0;exitPerimeter=0;" parent="1" source="ZPRrXdz_Xp1DLQXuUSa4-29" target="iunbp9EFBULpjeH-nD7Y-1" edge="1">
          <mxGeometry width="50" height="50" relative="1" as="geometry">
            <mxPoint x="-30" y="605" as="sourcePoint" />
            <mxPoint x="-190" y="520" as="targetPoint" />
            <Array as="points" />
          </mxGeometry>
        </mxCell>
        <mxCell id="iunbp9EFBULpjeH-nD7Y-16" value="&amp;lt;&amp;lt;extend&amp;gt;&amp;gt;" style="endArrow=open;endSize=12;dashed=1;html=1;rounded=0;exitX=1;exitY=0.5;exitDx=0;exitDy=0;entryX=0;entryY=0.5;entryDx=0;entryDy=0;" parent="1" source="iunbp9EFBULpjeH-nD7Y-5" target="Xwj4L3ruU9xIGPS3UAKI-3" edge="1">
          <mxGeometry width="160" relative="1" as="geometry">
            <mxPoint x="-585" y="530" as="sourcePoint" />
            <mxPoint x="-425" y="530" as="targetPoint" />
          </mxGeometry>
        </mxCell>
        <mxCell id="iunbp9EFBULpjeH-nD7Y-18" value="&amp;lt;&amp;lt;extend&amp;gt;&amp;gt;" style="endArrow=open;endSize=12;dashed=1;html=1;rounded=0;exitX=0.5;exitY=0;exitDx=0;exitDy=0;entryX=0.5;entryY=1;entryDx=0;entryDy=0;" parent="1" source="iunbp9EFBULpjeH-nD7Y-6" target="Xwj4L3ruU9xIGPS3UAKI-3" edge="1">
          <mxGeometry width="160" relative="1" as="geometry">
            <mxPoint x="-440" y="549" as="sourcePoint" />
            <mxPoint x="-540" y="590" as="targetPoint" />
            <Array as="points" />
          </mxGeometry>
        </mxCell>
        <mxCell id="iunbp9EFBULpjeH-nD7Y-19" value="transfer" style="ellipse;whiteSpace=wrap;html=1;labelBackgroundColor=none;" parent="1" vertex="1">
          <mxGeometry x="-70" y="280" width="140" height="70" as="geometry" />
        </mxCell>
        <mxCell id="iunbp9EFBULpjeH-nD7Y-20" value="cash" style="ellipse;whiteSpace=wrap;html=1;labelBackgroundColor=none;" parent="1" vertex="1">
          <mxGeometry x="-20" y="390" width="140" height="70" as="geometry" />
        </mxCell>
        <mxCell id="iunbp9EFBULpjeH-nD7Y-22" value="&amp;lt;&amp;lt;extend&amp;gt;&amp;gt;" style="endArrow=open;endSize=12;dashed=1;html=1;rounded=0;exitX=0;exitY=0.5;exitDx=0;exitDy=0;entryX=1;entryY=0.5;entryDx=0;entryDy=0;" parent="1" source="iunbp9EFBULpjeH-nD7Y-20" target="iunbp9EFBULpjeH-nD7Y-26" edge="1">
          <mxGeometry width="160" relative="1" as="geometry">
            <mxPoint x="-40" y="470" as="sourcePoint" />
            <mxPoint x="120" y="470" as="targetPoint" />
          </mxGeometry>
        </mxCell>
        <mxCell id="iunbp9EFBULpjeH-nD7Y-23" value="&amp;lt;&amp;lt;extend&amp;gt;&amp;gt;" style="endArrow=open;endSize=12;dashed=1;html=1;rounded=0;exitX=0;exitY=1;exitDx=0;exitDy=0;entryX=1;entryY=0;entryDx=0;entryDy=0;" parent="1" source="iunbp9EFBULpjeH-nD7Y-19" target="iunbp9EFBULpjeH-nD7Y-26" edge="1">
          <mxGeometry width="160" relative="1" as="geometry">
            <mxPoint x="-70" y="439" as="sourcePoint" />
            <mxPoint x="90" y="439" as="targetPoint" />
          </mxGeometry>
        </mxCell>
        <mxCell id="iunbp9EFBULpjeH-nD7Y-24" value="" style="endArrow=open;endSize=12;dashed=1;html=1;rounded=0;exitX=0.5;exitY=1;exitDx=0;exitDy=0;entryX=0.5;entryY=0;entryDx=0;entryDy=0;labelBackgroundColor=none;fontColor=default;" parent="1" target="Xwj4L3ruU9xIGPS3UAKI-1" edge="1">
          <mxGeometry x="0.0909" width="160" relative="1" as="geometry">
            <mxPoint x="-440" y="140" as="sourcePoint" />
            <mxPoint x="-440" y="250" as="targetPoint" />
            <mxPoint as="offset" />
          </mxGeometry>
        </mxCell>
        <mxCell id="Xwj4L3ruU9xIGPS3UAKI-1" value="Search tabacco" style="ellipse;whiteSpace=wrap;html=1;labelBackgroundColor=none;" parent="1" vertex="1">
          <mxGeometry x="-510" y="100" width="140" height="70" as="geometry" />
        </mxCell>
        <mxCell id="iunbp9EFBULpjeH-nD7Y-26" value="Confirm Payment" style="ellipse;whiteSpace=wrap;html=1;labelBackgroundColor=none;" parent="1" vertex="1">
          <mxGeometry x="-260" y="400" width="140" height="70" as="geometry" />
        </mxCell>
        <mxCell id="iunbp9EFBULpjeH-nD7Y-27" value="&amp;lt;&amp;lt;extend&amp;gt;&amp;gt;" style="endArrow=open;endSize=12;dashed=1;html=1;rounded=0;exitX=0.5;exitY=0;exitDx=0;exitDy=0;entryX=0.5;entryY=1;entryDx=0;entryDy=0;" parent="1" source="iunbp9EFBULpjeH-nD7Y-26" target="Xwj4L3ruU9xIGPS3UAKI-5" edge="1">
          <mxGeometry width="160" relative="1" as="geometry">
            <mxPoint x="-310" y="350" as="sourcePoint" />
            <mxPoint x="-150" y="350" as="targetPoint" />
          </mxGeometry>
        </mxCell>
      </root>
    </mxGraphModel>
  </diagram>
</mxfile>
